<?xml version="1.0" encoding="UTF-8"?>
<svg id="Camada_1" data-name="Camada 1" xmlns="http://www.w3.org/2000/svg" viewBox="0 0 1920 625">
  <defs>
    <style>
      .cls-1, .cls-2, .cls-3, .cls-4, .cls-5, .cls-6, .cls-7 {
        stroke: #000;
        stroke-miterlimit: 10;
      }

      .cls-1, .cls-3, .cls-4 {
        stroke-width: 4px;
      }

      .cls-1, .cls-5 {
        fill: none;
      }

      .cls-2 {
        stroke-width: 6px;
      }

      .cls-2, .cls-3, .cls-4, .cls-6, .cls-7 {
        fill: #fff;
      }

      .cls-3 {
        fill-rule: evenodd;
      }

      .cls-5 {
        stroke-width: 12px;
      }

      .cls-6 {
        stroke-width: 2px;
      }

      .cls-7 {
        stroke-width: 5px;
      }
    </style>
  </defs>
  <line class="cls-5" y1="619" x2="1920" y2="619"/>
  <g>
    <rect class="cls-7" x="20" y="484.5" width="449.5" height="38.5" rx="2.44" ry="2.44"/>
    <rect class="cls-7" x="20.5" y="432.5" width="449" height="51.69" rx="9.7" ry="9.7"/>
    <ellipse class="cls-4" cx="44.5" cy="383" rx="34" ry="52.5" transform="translate(-152.1 51.31) rotate(-24.03)"/>
    <rect class="cls-4" x="407" y="523" width="26" height="90" rx="4.24" ry="4.24"/>
    <rect class="cls-7" x="89.93" y="422.5" width="379.57" height="120" rx="15.74" ry="15.74"/>
    <rect class="cls-4" x="71" y="523" width="26" height="90" rx="5.56" ry="5.56"/>
    <rect class="cls-7" x="71.5" y="422.5" width="47" height="120" rx="11.81" ry="11.81"/>
  </g>
  <rect class="cls-4" x="65" y="2" width="178" height="130" rx="11.24" ry="11.24"/>
  <rect class="cls-4" x="84.24" y="16.53" width="138.94" height="101.47" rx="7.03" ry="7.03"/>
  <rect class="cls-4" x="892" y="17" width="379" height="350" rx="9.56" ry="9.56"/>
  <rect class="cls-4" x="920" y="50" width="143.38" height="130" rx="16.29" ry="16.29"/>
  <rect class="cls-4" x="920.13" y="210.29" width="143.38" height="130" rx="13.38" ry="13.38"/>
  <rect class="cls-4" x="1098.13" y="210.29" width="143.38" height="130" rx="12.96" ry="12.96"/>
  <rect class="cls-4" x="1098.13" y="50.29" width="143.38" height="130" rx="13.9" ry="13.9"/>
  <rect class="cls-4" x="297.08" y="39" width="127.74" height="93.29" rx="11.24" ry="11.24"/>
  <rect class="cls-4" x="310.89" y="49.43" width="99.71" height="72.82" rx="7.03" ry="7.03"/>
  <rect class="cls-4" x="489" y="101" width="331" height="23.16" rx="6.29" ry="6.29"/>
  <polygon class="cls-3" points="540 168 527 168 517 124.16 551 124.16 540 168"/>
  <polygon class="cls-3" points="779.8 168 766.8 168 756.8 124.16 790.8 124.16 779.8 168"/>
  <polygon class="cls-3" points="584 101 541 101 541 68 584 42 584 101"/>
  <polygon class="cls-3" points="658 99 624 99 624 21 658 22.2 658 99"/>
  <polygon class="cls-3" points="794 99 697 99 697 63 794 63.55 794 99"/>
  <line class="cls-1" x1="84" y1="86" x2="117" y2="49"/>
  <line class="cls-1" x1="138" y1="86" x2="117" y2="49"/>
  <line class="cls-1" x1="220" y1="86" x2="180" y2="30"/>
  <line class="cls-1" x1="115" y1="117" x2="180" y2="30"/>
  <path class="cls-1" d="m342,89c5.32-15.25,20.73-22.91,33-19,8.89,2.84,15.51,11.55,17,22"/>
  <path class="cls-1" d="m327,102c2.39,1.52,10.3,6.13,21,5,13.01-1.37,20.52-10.18,22-12"/>
  <rect class="cls-2" x="1580" y="98" width="258" height="518"/>
  <rect class="cls-4" x="1615" y="132" width="76" height="258" rx="11.56" ry="11.56"/>
  <rect class="cls-4" x="1628" y="146" width="51" height="230" rx="11.56" ry="11.56"/>
  <rect class="cls-4" x="1728" y="132" width="76" height="258" rx="11.56" ry="11.56"/>
  <rect class="cls-4" x="1741" y="146" width="51" height="230" rx="11.56" ry="11.56"/>
  <rect class="cls-4" x="1682" y="346" width="55" height="189" rx="11.56" ry="11.56" transform="translate(1269 2150) rotate(-90)"/>
  <rect class="cls-4" x="1691.05" y="355.89" width="36.91" height="168.49" rx="11.56" ry="11.56" transform="translate(1269.36 2149.64) rotate(-90)"/>
  <circle class="cls-4" cx="1601" cy="402" r="13"/>
  <circle class="cls-6" cx="1600.85" cy="402.24" r="5.76"/>
  <rect class="cls-4" x="1682.26" y="428.38" width="55" height="189" rx="11.56" ry="11.56" transform="translate(1186.88 2232.65) rotate(-90)"/>
  <rect class="cls-4" x="1691.31" y="438.28" width="36.91" height="168.49" rx="11.56" ry="11.56" transform="translate(1187.24 2232.29) rotate(-90)"/>
</svg>